<?xml version="1.0" encoding="UTF-8" standalone="no"?>
<svg
   xmlns:dc="http://purl.org/dc/elements/1.1/"
   xmlns:cc="http://creativecommons.org/ns#"
   xmlns:rdf="http://www.w3.org/1999/02/22-rdf-syntax-ns#"
   xmlns:svg="http://www.w3.org/2000/svg"
   xmlns="http://www.w3.org/2000/svg"
   xmlns:sodipodi="http://sodipodi.sourceforge.net/DTD/sodipodi-0.dtd"
   xmlns:inkscape="http://www.inkscape.org/namespaces/inkscape"
   width="210mm"
   height="297mm"
   viewBox="0 0 210 297"
   version="1.1"
   id="svg1096"
   inkscape:version="1.0.2 (1.0.2+r75+1)"
   sodipodi:docname="glimpsR_logo.svg">
  <defs
     id="defs1090" />
  <sodipodi:namedview
     id="base"
     pagecolor="#ffffff"
     bordercolor="#666666"
     borderopacity="1.0"
     inkscape:pageopacity="0.0"
     inkscape:pageshadow="2"
     inkscape:zoom="0.7"
     inkscape:cx="139.75366"
     inkscape:cy="491.24892"
     inkscape:document-units="mm"
     inkscape:current-layer="layer1"
     inkscape:document-rotation="0"
     showgrid="false"
     inkscape:window-width="1439"
     inkscape:window-height="1107"
     inkscape:window-x="133"
     inkscape:window-y="93"
     inkscape:window-maximized="0" />
  <metadata
     id="metadata1093">
    <rdf:RDF>
      <cc:Work
         rdf:about="">
        <dc:format>image/svg+xml</dc:format>
        <dc:type
           rdf:resource="http://purl.org/dc/dcmitype/StillImage" />
        <dc:title></dc:title>
      </cc:Work>
    </rdf:RDF>
  </metadata>
  <g
     inkscape:label="Layer 1"
     inkscape:groupmode="layer"
     id="layer1">
    <circle
       style="fill:#ffb380;fill-rule:evenodd;stroke-width:0.28603"
       id="path28-1-2"
       cx="101.57101"
       cy="73.493294"
       r="37.761715"
       inkscape:export-xdpi="300"
       inkscape:export-ydpi="300" />
    <path
       style="fill:#220055;stroke-width:0.264583"
       d="m 121.48278,123.28877 c -1.99852,-1.99852 -0.30617,-3.73608 3.65598,-3.75366 l 1.42214,-0.006 -0.16694,-0.83468 c -0.0918,-0.45907 -0.29725,-0.9917 -0.45653,-1.18362 -0.43579,-0.52509 -2.01716,-0.73301 -3.31547,-0.43591 -0.8997,0.20588 -1.15429,0.18933 -1.15429,-0.075 0,-0.68832 3.5098,-0.98082 4.62264,-0.38524 0.9151,0.48974 1.19819,1.56274 1.19819,4.54144 0,2.14037 -0.071,2.60636 -0.39687,2.60636 -0.21828,0 -0.39688,-0.18134 -0.39688,-0.40298 0,-0.35623 -0.0743,-0.35426 -0.64096,0.017 -0.35253,0.23099 -1.29823,0.48782 -2.10156,0.57073 -1.36877,0.14127 -1.51145,0.0999 -2.26945,-0.65811 z m 4.15208,-0.58208 c 0.70759,-0.43142 0.85989,-0.689 0.85989,-1.45422 v -0.92993 h -1.98437 c -1.6316,0 -2.07845,0.0941 -2.51354,0.52917 -0.63683,0.63683 -0.66164,1.01605 -0.11729,1.79321 0.54743,0.78157 2.5215,0.81404 3.75531,0.0618 z m 14.72808,0.94394 c -1.45096,-0.63175 -1.96194,-1.57565 -1.96194,-3.62418 0,-1.60374 0.0837,-1.90564 0.72761,-2.6242 1.77872,-1.98497 5.23797,-1.31696 5.72236,1.10504 0.42724,2.1362 0.50165,2.07984 -2.7458,2.07984 -3.14277,0 -3.23724,0.0515 -2.61151,1.42487 0.41926,0.92017 1.53859,1.30475 3.40465,1.16978 1.65827,-0.11995 2.06989,0.14569 0.90943,0.58689 -0.94074,0.35767 -2.47279,0.30517 -3.4448,-0.11804 z m 3.8589,-4.39956 c 0,-2.19659 -2.65606,-3.19235 -4.25369,-1.59471 -0.45464,0.45464 -0.7734,1.0544 -0.7734,1.45521 v 0.68181 h 2.51355 c 2.35745,0 2.51354,-0.0337 2.51354,-0.54231 z m 34.925,4.31221 c -2.13256,-1.06534 -2.54227,-5.11938 -0.67407,-6.66986 0.62513,-0.5188 2.46493,-0.77846 3.49689,-0.49352 1.15844,0.31986 1.93736,1.55039 1.93869,3.06275 l 9.9e-4,1.12448 h -2.9391 -2.9391 l 0.17094,0.7276 c 0.094,0.40018 0.48499,1.00775 0.86885,1.35015 0.6191,0.55225 0.90181,0.61103 2.50358,0.52052 1.25011,-0.0706 1.80566,-0.008 1.80566,0.20427 0,0.71483 -2.91097,0.8342 -4.23333,0.17361 z m 3.96875,-4.50478 c 0,-1.06091 -0.67232,-1.8642 -1.72566,-2.06181 -1.7635,-0.33083 -2.74721,0.30925 -3.1799,2.06908 l -0.17889,0.72761 h 2.54222 2.54223 z m -53.44584,0.99946 c 0,-3.11621 0.063,-3.70417 0.39688,-3.70417 0.21828,0 0.39687,0.18165 0.39687,0.40367 0,0.35851 0.0906,0.3568 0.81016,-0.0153 0.93498,-0.4835 3.11836,-0.57015 3.89488,-0.15457 0.80641,0.43158 1.1158,1.69823 1.1158,4.56815 0,2.14037 -0.071,2.60636 -0.39688,2.60636 -0.32448,0 -0.39687,-0.45129 -0.39687,-2.47406 0,-2.85005 -0.31498,-4.02115 -1.14112,-4.2427 -1.08504,-0.29098 -2.16505,-0.16112 -3.02607,0.36386 l -0.8599,0.52428 v 2.91431 c 0,2.41411 -0.0681,2.91431 -0.39687,2.91431 -0.33388,0 -0.39688,-0.58797 -0.39688,-3.70417 z m 18.80572,2.71198 c -0.14557,-0.5457 -0.56658,-2.12328 -0.93557,-3.50573 -0.78409,-2.93765 -0.78123,-2.91042 -0.30564,-2.91042 0.24599,0 0.59965,0.93945 1.07505,2.8557 0.38965,1.57064 0.79629,2.99782 0.90365,3.17153 0.11149,0.18041 0.63842,-1.04562 1.22893,-2.85941 0.56855,-1.74638 1.13971,-3.13991 1.26925,-3.09673 0.12953,0.0432 0.6625,1.41406 1.18439,3.04642 0.52188,1.63235 1.02146,2.96791 1.11017,2.96791 0.0887,0 0.49524,-1.36922 0.90339,-3.04271 0.59327,-2.43245 0.83457,-3.04271 1.20312,-3.04271 0.41397,0 0.36276,0.37126 -0.50179,3.63802 -0.80666,3.04797 -1.04881,3.65062 -1.49302,3.7157 -0.45878,0.0672 -0.65753,-0.32058 -1.47538,-2.87866 l -0.94518,-2.95633 -0.98125,2.9448 c -0.78535,2.35689 -1.08049,2.94481 -1.47834,2.94481 -0.35098,0 -0.5749,-0.29165 -0.76178,-0.99219 z m 17.64854,-2.71198 c -1.26917,-3.17931 -1.41178,-3.70417 -1.00647,-3.70417 0.35926,0 0.73672,0.70854 1.57806,2.96222 0.60821,1.62922 1.19855,3.12788 1.31186,3.33036 0.13493,0.2411 0.64514,-0.78114 1.4785,-2.96222 0.96177,-2.51717 1.38595,-3.33036 1.73723,-3.33036 0.395,0 0.24282,0.55594 -1.01393,3.70417 -1.25404,3.14141 -1.56437,3.70417 -2.04263,3.70417 -0.47826,0 -0.78859,-0.56276 -2.04262,-3.70417 z m 8.26033,0.39687 v -3.30729 h -0.66146 c -0.41157,0 -0.66146,-0.14993 -0.66146,-0.39687 0,-0.28663 0.29398,-0.39688 1.05834,-0.39688 h 1.05833 v 3.70417 c 0,3.1162 -0.063,3.70417 -0.39688,3.70417 -0.33161,0 -0.39687,-0.54387 -0.39687,-3.3073 z m 12.36292,-0.30953 c -0.52775,-2.00278 -0.91106,-3.68989 -0.85181,-3.74915 0.42408,-0.42407 0.9045,0.58686 1.56771,3.29884 0.88055,3.60077 0.78396,3.6403 2.17697,-0.8909 0.41333,-1.34447 0.87056,-2.44312 1.01609,-2.44145 0.14552,0.002 0.72844,1.45888 1.29538,3.23824 0.56694,1.77936 1.09353,3.05661 1.17019,2.83833 0.0767,-0.21828 0.45367,-1.64683 0.83779,-3.17456 0.54166,-2.1543 0.80727,-2.79864 1.18352,-2.8711 0.32044,-0.0617 0.4389,0.028 0.34898,0.26414 -0.0749,0.19666 -0.52823,1.88136 -1.00746,3.74379 -0.77712,3.02013 -0.92927,3.3777 -1.40732,3.30729 -0.42861,-0.0631 -0.72394,-0.65152 -1.47393,-2.93657 l -0.93792,-2.85763 -0.95155,2.85763 c -0.75178,2.25767 -1.06236,2.8741 -1.47933,2.93607 -0.46829,0.0696 -0.63594,-0.33202 -1.48731,-3.56297 z m -81.24382,-7.42953 c -0.0959,-4.0382 -0.17456,-10.28898 -0.17484,-13.890621 l -5.1e-4,-6.54844 h 2.91041 2.91042 v 0.66146 c 0,0.3638 0.0747,0.66146 0.16597,0.66146 0.0913,0 0.94935,-0.38566 1.90682,-0.85702 1.59586,-0.78564 1.95211,-0.85702 4.27721,-0.85702 2.32618,0 2.68091,0.0712 4.28085,0.85881 2.53806,1.24948 3.70323,3.00481 4.16664,6.27705 0.27107,1.914121 -0.042,5.470961 -0.64007,7.271531 -0.55588,1.67358 -2.23417,3.55887 -3.93833,4.42408 -1.95196,0.99102 -5.4484,1.15951 -7.76335,0.3741 -0.90491,-0.30701 -1.70858,-0.5582 -1.78593,-0.5582 -0.0774,0 -0.14064,2.14312 -0.14064,4.7625 v 4.7625 h -3.00016 -3.00016 z m 12.05903,-6.32059 c 1.27866,-0.65439 1.89805,-2.27254 1.91019,-4.99035 0.008,-1.816411 -0.10336,-2.590161 -0.46996,-3.261991 -0.90052,-1.6503 -3.57465,-2.13303 -5.7472,-1.03749 l -1.18054,0.59532 -0.0727,4.124071 -0.0726,4.12407 0.99869,0.42204 c 0.54928,0.23212 1.17728,0.48293 1.39556,0.55735 0.5771,0.19678 2.3982,-0.10295 3.23855,-0.53302 z m -86.979184,11.78106 c -2.42865,-0.14864 -3.73966,-0.32554 -4.96094,-0.6694 -0.39177,-0.11031 -0.46302,-0.45774 -0.46302,-2.25789 v -2.12752 l 0.72761,0.1845 c 1.92838,0.489 4.19487,0.71738 7.26095,0.73163 2.71461,0.0126 3.48803,-0.0694 4.0349,-0.42768 0.3721,-0.24381 0.67654,-0.59532 0.67654,-0.78114 0,-0.83543 -0.64107,-0.97286 -4.53781,-0.97286 -6.16323,0 -8.02144,-0.69115 -8.34498,-3.10387 -0.1945,-1.4504 0.25951,-2.51493 1.54009,-3.61106 l 1.01971,-0.87283 -1.01704,-0.81732 c -1.43683,-1.15467 -1.97704,-2.44306 -1.9772,-4.715611 -3.1e-4,-4.35211 2.71545,-6.63711 8.02556,-6.75258 1.09141,-0.0237 4.34961,0.0505 7.24045,0.16495 l 5.25608,0.2081 -0.16285,1.18808 c -0.0896,0.65344 -0.16284,1.46912 -0.16284,1.81261 0,0.57304 -0.10906,0.62453 -1.32292,0.62453 -1.41512,0 -1.52432,0.10834 -0.91762,0.91046 0.54349,0.71856 0.5185,3.885511 -0.0394,4.989651 -1.25649,2.48688 -2.67138,3.14963 -7.1402,3.34456 -3.67528,0.16031 -4.43383,0.41469 -4.28485,1.43695 0.11061,0.75897 0.87052,0.90251 4.97371,0.93948 2.8654,0.0258 3.7812,0.12879 4.63021,0.52064 1.96224,0.90563 2.77812,2.26082 2.77812,4.6145 0,4.20528 -4.16275,5.96971 -12.83229,5.43912 z m 5.71305,-16.78408 c 0.90799,-0.46954 1.29841,-1.30108 1.29841,-2.765451 0,-2.27807 -1.08607,-3.23065 -3.67605,-3.22425 -2.66783,0.007 -3.76551,0.87863 -3.79595,3.01562 -0.0231,1.621201 0.25959,2.291141 1.21177,2.871731 1.05425,0.64283 3.80684,0.69962 4.96182,0.10235 z m 137.823424,12.59978 c 0,-0.37864 0.16992,-0.54856 0.54856,-0.54856 0.37865,0 0.52113,0.14248 0.45999,0.45998 -0.13283,0.6897 -1.00855,0.76662 -1.00855,0.0886 z M 49.848986,111.29975 c -1.21341,-0.35109 -2.34703,-1.60747 -2.69411,-2.98584 -0.20043,-0.79596 -0.29971,-5.0081 -0.29971,-12.714781 v -11.5245 h 3.175 3.175 v 11.1064 11.106401 l 0.65275,0.4277 c 0.47577,0.31173 0.94207,0.37882 1.71979,0.24743 l 1.06704,-0.18028 v 2.12749 2.12748 l -0.99219,0.27555 c -1.1973,0.3325 -4.63603,0.32478 -5.80357,-0.013 z m 81.760384,-0.084 c -1.04327,-0.19828 -2.02553,-0.44004 -2.18281,-0.53724 -0.17002,-0.10508 -0.28597,-1.12541 -0.28597,-2.51648 v -2.33974 l 1.22013,0.3672 c 3.10686,0.93503 7.82758,0.96848 8.39843,0.0595 0.48234,-0.76803 -0.46777,-1.42545 -3.61893,-2.50409 -4.92408,-1.68551 -6.33031,-3.04474 -6.36674,-6.153921 -0.0372,-3.17398 2.07186,-5.05368 6.25522,-5.57503 2.03856,-0.25406 6.29087,-0.002 8.00251,0.47364 l 0.79375,0.22074 0.0765,2.29674 c 0.0421,1.26321 0.0197,2.29674 -0.0497,2.29674 -0.0694,0 -0.93723,-0.18899 -1.92853,-0.41999 -2.35883,-0.54966 -5.69612,-0.42984 -6.35409,0.22812 -0.73576,0.73577 -0.14988,1.30522 2.05897,2.00123 4.97366,1.567201 6.58112,2.489501 7.28814,4.181631 0.2002,0.47915 0.364,1.60869 0.364,2.51008 0,2.40428 -0.79755,3.64255 -3.06511,4.75887 -1.65423,0.81438 -1.90645,0.85948 -5.2235,0.93409 -2.16896,0.0488 -4.20177,-0.0578 -5.38219,-0.28211 z m -71.322354,-7.0989 -0.0704,-7.209891 -1.40691,-0.0806 c -1.37007,-0.0785 -1.40341,-0.0993 -1.27325,-0.79375 0.0735,-0.39224 0.20917,-1.39777 0.30147,-2.23452 l 0.16781,-1.52135 h 4.2143 4.21429 v 9.525001 9.525 h -3.03845 -3.03846 z m 10.64523,-2.3151 v -9.525001 h 2.88939 2.8894 l 0.16839,0.7667 0.1684,0.76669 1.11101,-0.62096 c 3.25368,-1.81852 7.02521,-1.85684 9.03545,-0.0918 l 0.90174,0.79174 1.5722,-0.79365 c 4.0679,-2.05346 8.79793,-1.60256 10.556034,1.00629 1.01503,1.5062 1.13207,2.54021 1.1336,10.015111 l 0.001,7.2099 h -3.008094 -3.0081 l -0.16399,-0.99219 c -0.0902,-0.5457 -0.16531,-3.51563 -0.16691,-6.59983 -0.003,-5.455821 -0.0193,-5.626651 -0.60696,-6.309881 -0.87117,-1.0128 -2.5755,-1.15073 -4.15846,-0.33654 l -1.19062,0.6124 -0.0706,6.813021 -0.0706,6.81302 h -2.90595 -2.90596 v -6.31052 c 0,-3.72411 -0.11384,-6.637081 -0.27775,-7.107281 -0.63496,-1.82146 -3.2197,-1.82091 -5.21235,0.001 -0.58613,0.53594 -0.59531,0.64363 -0.59531,6.980511 v 6.43623 h -3.04271 -3.04271 z m 78.052094,-3.457271 v -12.98227 l 7.87135,0.0838 c 7.57075,0.0806 7.92308,0.10724 9.22556,0.69673 2.42777,1.09878 3.83924,3.10632 4.31791,6.14137 0.26005,1.64891 0.0887,3.83486 -0.40392,5.15198 -0.57815,1.5459 -1.78801,2.825871 -4.0416,4.275821 -0.053,0.0341 0.15344,0.46611 0.45872,0.96006 0.30527,0.49395 1.32408,2.64684 2.26402,4.78421 l 1.70898,3.88612 -3.34276,-0.0739 -3.34275,-0.0739 -1.61223,-3.67798 c -1.03677,-2.36517 -1.83334,-3.82479 -2.23169,-4.08928 -0.41942,-0.27849 -1.27085,-0.4151 -2.63667,-0.42307 l -2.01721,-0.0118 -0.0729,4.16719 -0.0729,4.16719 h -3.03599 -3.03599 z m 13.09958,-0.62785 c 1.29197,-0.53982 1.97947,-1.79453 1.98068,-3.61482 7.9e-4,-1.10678 -0.15225,-1.70994 -0.604,-2.38125 -0.84757,-1.25951 -2.06124,-1.5935 -5.461,-1.50281 l -2.79755,0.0746 -0.0732,3.90261 -0.0732,3.9026 h 3.05828 c 2.06311,0 3.35496,-0.12396 3.97003,-0.38095 z M 59.819746,86.720459 v -2.38125 h 3.43958 3.43959 v 2.38125 2.38125 h -3.43959 -3.43958 z m 37.70723,-7.69455 c -5.7597,-0.79222 -12.88497,-3.55242 -17.96466,-6.95919 -1.00154,-0.67169 -1.88684,-1.22126 -1.96735,-1.22126 -0.0805,0 -0.72865,0.49099 -1.44034,1.09109 -0.99621,0.84001 -1.36542,1.01877 -1.60452,0.77682 -0.23844,-0.24128 -0.0849,-0.52187 0.66111,-1.20815 l 0.97168,-0.89388 -0.81901,-0.0814 c -1.23294,-0.12251 -1.26164,-0.74283 -0.0344,-0.74283 h 1.00179 l -1.0247,-1.04939 c -0.88032,-0.90154 -0.95968,-1.07433 -0.56324,-1.22646 0.32604,-0.12512 0.78613,0.14158 1.56794,0.90887 l 1.1065,1.08594 1.71816,-1.20504 c 2.317,-1.62504 8.56556,-4.673224 11.56862,-5.643424 4.03324,-1.30301 6.6541,-1.71061 10.919334,-1.69821 4.27428,0.0124 7.18664,0.51379 11.46648,1.97395 2.94825,1.005864 7.30109,3.139354 10.20324,5.001014 2.36849,1.51932 2.16374,1.52475 3.92923,-0.10408 0.61377,-0.56626 0.94197,-0.71226 1.14492,-0.50931 0.20295,0.20295 0.0515,0.54987 -0.5283,1.21023 l -0.8128,0.92573 0.79237,0.15847 c 1.02569,0.20514 1.01615,0.66934 -0.018,0.87618 l -0.81038,0.16207 0.79973,0.82511 c 0.55533,0.57295 0.72938,0.93895 0.56952,1.1976 -0.18222,0.29484 -0.49112,0.14282 -1.48181,-0.72922 -0.68838,-0.60594 -1.33813,-1.1017 -1.44389,-1.1017 -0.10577,0 -1.01174,0.54961 -2.01327,1.22136 -4.20967,2.8235 -10.47009,5.44031 -15.40793,6.44039 -3.08334,0.62449 -7.96228,0.86583 -10.486034,0.5187 z m 8.573184,-1.06579 c 2.05622,-0.34674 3.24078,-1.29902 4.35284,-3.49927 1.80211,-3.56554 1.31594,-7.73039 -1.27088,-10.887264 -0.84864,-1.03565 -1.01305,-1.11377 -2.9715,-1.41189 -2.62854,-0.40011 -7.051024,-0.40271 -9.318694,-0.005 -1.33822,0.23442 -1.95604,0.49899 -2.62414,1.12374 -3.44061,3.217374 -3.59081,9.193894 -0.3331,13.254024 0.76377,0.9519 1.02681,1.08844 2.61555,1.35771 2.3473,0.39783 7.382584,0.4339 9.549924,0.0684 z m -7.254374,-2.18899 c -2.40983,-1.13925 -3.65299,-3.09647 -3.6372,-5.72639 0.016,-2.66056 1.23654,-4.57754 3.6372,-5.71245 4.208214,-1.989434 8.956914,1.05607 8.928874,5.72639 -0.0214,3.56565 -2.76964,6.33786 -6.28303,6.33786 -0.84128,0 -1.804564,-0.2277 -2.645844,-0.62541 z m 6.855654,-3.88764 c 0.99199,-1.17891 0.942,-2.60956 -0.13089,-3.74584 -0.77149,-0.81706 -0.80572,-0.82808 -0.6293,-0.20261 0.41118,1.45772 0.42086,2.846 0.0264,3.79003 -0.49537,1.1856 -0.18662,1.25226 0.73378,0.15842 z m -13.343934,4.20338 c -1.23741,-1.7082 -1.94805,-4.37823 -1.77343,-6.66321 0.15023,-1.96593 0.89139,-4.21025 1.82198,-5.51713 0.29938,-0.420454 0.48896,-0.819834 0.42127,-0.887524 -0.20404,-0.20404 -4.6687,1.450954 -7.2107,2.672914 -2.35297,1.1311 -7.27705,4.07557 -7.27497,4.35026 0.002,0.28857 4.44239,3.00014 6.79541,4.14985 2.35764,1.15196 7.01687,2.96342 7.69111,2.99022 0.18663,0.007 -0.0198,-0.47295 -0.47067,-1.09538 z m 19.430004,0.56725 c 3.67391,-1.13476 8.80843,-3.6743 11.77787,-5.82534 l 1.15601,-0.83741 -1.95759,-1.26003 c -3.52688,-2.27012 -9.34267,-4.96525 -12.20707,-5.656944 l -0.72447,-0.17495 0.7821,1.233244 c 2.2614,3.56587 2.27011,8.26774 0.0219,11.806 -0.43922,0.69122 -0.7542,1.25677 -0.69998,1.25677 0.0542,0 0.88729,-0.24361 1.85126,-0.54134 z"
       id="path1032-7"
       inkscape:export-xdpi="300"
       inkscape:export-ydpi="300" />
  </g>
</svg>
